<svg width="165" height="172" viewBox="0 0 165 172" fill="none" xmlns="http://www.w3.org/2000/svg">
<path fill-rule="evenodd" clip-rule="evenodd" d="M42.7439 0.446228L82.241 8.15326L55.8209 38.5015L42.7439 0.446228Z" fill="url(#paint0_angular_612_341)"/>
<path d="M9.32577 52.338C18.4257 34.4265 33.7951 20.4863 52.5088 13.1705L56.3196 23.4935C40.0818 29.8414 26.7438 41.9339 18.8412 57.472C10.9386 73.0102 9.02245 90.9107 13.457 107.77C17.8916 124.63 28.3676 139.273 42.8936 148.917C57.4196 158.56 74.9826 162.53 92.2438 160.074C109.505 157.617 125.261 148.904 136.516 135.591C147.771 122.279 153.741 105.295 153.29 87.8681C152.839 70.4414 145.999 53.7872 134.071 41.0715C122.143 28.3559 105.957 20.4654 88.5921 18.9002L89.3986 7.85516C109.418 9.59002 128.101 18.6236 141.893 33.2367C155.684 47.8497 163.621 67.022 164.192 87.1046C164.764 107.187 157.93 126.778 144.992 142.148C132.053 157.519 113.914 167.596 94.0256 170.462C74.1373 173.327 53.8885 168.782 37.1332 157.69C20.3779 146.598 8.2858 129.734 3.1583 110.308C-1.9692 90.8815 0.225879 70.2494 9.32577 52.338Z" fill="url(#paint1_angular_612_341)"/>
<defs>
<radialGradient id="paint0_angular_612_341" cx="0" cy="0" r="1" gradientUnits="userSpaceOnUse" gradientTransform="translate(82.3363 85.8726) rotate(-90) scale(111.834 110.789)">
<stop stop-color="#0750AD"/>
<stop offset="1" stop-color="#A627B0"/>
</radialGradient>
<radialGradient id="paint1_angular_612_341" cx="0" cy="0" r="1" gradientUnits="userSpaceOnUse" gradientTransform="translate(82.3363 85.8726) rotate(-90) scale(111.834 110.789)">
<stop stop-color="#0750AD"/>
<stop offset="1" stop-color="#A627B0"/>
</radialGradient>
</defs>
</svg>
