<svg width="184" height="42" viewBox="0 0 184 42" fill="none" xmlns="http://www.w3.org/2000/svg">
<path d="M3.5 12.0238L21.7879 5.96735M3.5 12.0238L14.8913 15.7222M3.5 12.0238L10.9455 21.1807M21.7879 5.96735L40.0482 12.0238M21.7879 5.96735C21.7879 5.96735 25.5286 10.7692 29.1241 15.5759M21.7879 5.96735L14.8913 15.7222M40.0482 12.0238L29.1241 15.5759M40.0482 12.0238L33.2201 21.1807M14.8913 15.7222L21.7879 17.9614M14.8913 15.7222L10.9455 21.1807M21.7879 17.9614L29.1241 15.5759M21.7879 17.9614V35.7744M29.1241 15.5759C30.6044 17.555 32.0601 19.5348 33.2201 21.1807M21.7879 35.7744L10.9455 21.1807M21.7879 35.7744L33.2201 21.1807" stroke="url(#paint0_linear_612_316)" stroke-width="3" stroke-miterlimit="12.8023" stroke-linecap="round"/>
<path d="M55.0667 29.1319V16.138H49.8271V13.1183H64.0956V16.138H58.856V29.1319H55.0667Z" fill="url(#paint1_linear_612_316)"/>
<path d="M66.8392 29.1319V15.9779H70.535V21.0107H76.0085V15.9779H79.7042V29.1319H76.0085V23.916H70.535V29.1319H66.8392Z" fill="url(#paint2_linear_612_316)"/>
<path d="M87.4972 21.148H93.9999V23.7788H87.4972V21.148ZM87.8715 26.3638H95.0525V29.1319H84.2225V15.9779H94.7952V18.7459H87.8715V26.3638Z" fill="url(#paint3_linear_612_316)"/>
<path d="M98.659 29.1319V15.9779H101.747L107.314 24.8311H105.817L111.267 15.9779H114.378L114.424 29.1319H110.963L110.939 21.1251H111.454L107.337 27.7364H105.676L101.419 21.1251H102.097V29.1319H98.659Z" fill="url(#paint4_linear_612_316)"/>
<path d="M118.92 29.1319V15.9779H122.616V29.1319H118.92Z" fill="url(#paint5_linear_612_316)"/>
<path d="M137.647 25.1285C137.647 25.9521 137.406 26.6841 136.922 27.3247C136.454 27.9652 135.768 28.4685 134.864 28.8345C133.975 29.2005 132.876 29.3835 131.566 29.3835C130.49 29.3835 129.429 29.2539 128.385 28.9946C127.355 28.7354 126.521 28.3922 125.882 27.9652L127.168 25.2886C127.776 25.6852 128.486 25.9978 129.297 26.2266C130.108 26.4553 130.934 26.5697 131.776 26.5697C132.603 26.5697 133.18 26.4553 133.507 26.2266C133.835 25.9978 133.998 25.7309 133.998 25.4259C133.998 25.1209 133.85 24.8769 133.554 24.6938C133.273 24.5108 132.899 24.3659 132.431 24.2592C131.979 24.1372 131.472 24.0228 130.911 23.916C130.365 23.8093 129.811 23.672 129.25 23.5043C128.704 23.3365 128.197 23.1154 127.73 22.8408C127.277 22.5511 126.903 22.1774 126.607 21.7199C126.326 21.2471 126.186 20.6599 126.186 19.9584C126.186 19.1348 126.428 18.4104 126.911 17.7851C127.41 17.1446 128.112 16.6413 129.016 16.2753C129.921 15.9092 130.997 15.7262 132.244 15.7262C133.086 15.7262 133.944 15.8177 134.817 16.0007C135.69 16.1838 136.454 16.4735 137.109 16.87L135.916 19.5466C135.308 19.1806 134.677 18.9213 134.022 18.7688C133.382 18.6163 132.743 18.54 132.104 18.54C131.324 18.54 130.755 18.6544 130.396 18.8832C130.038 19.112 129.858 19.4017 129.858 19.7525C129.858 20.0575 129.999 20.3015 130.279 20.4845C130.56 20.6676 130.926 20.8201 131.379 20.9421C131.846 21.0488 132.361 21.1556 132.922 21.2624C133.484 21.3691 134.037 21.5064 134.583 21.6741C135.129 21.8266 135.636 22.0402 136.104 22.3147C136.571 22.5892 136.946 22.9552 137.226 23.4128C137.507 23.855 137.647 24.427 137.647 25.1285Z" fill="url(#paint6_linear_612_316)"/>
<path d="M146.422 29.1319L153.719 13.1183H157.462L164.783 29.1319H160.807L154.819 14.9942H156.316L150.304 29.1319H146.422ZM150.071 25.7004L151.076 22.8866H159.497L160.526 25.7004H150.071Z" fill="url(#paint7_linear_612_316)"/>
<path d="M167.396 29.1319V13.1183H171.185V29.1319H167.396Z" fill="url(#paint8_linear_612_316)"/>
<defs>
<linearGradient id="paint0_linear_612_316" x1="21.7741" y1="5.96735" x2="21.7741" y2="35.7744" gradientUnits="userSpaceOnUse">
<stop stop-color="#66D9E8"/>
<stop offset="0.375" stop-color="#748FFC"/>
<stop offset="0.729167" stop-color="#CC5DE8"/>
</linearGradient>
<linearGradient id="paint1_linear_612_316" x1="110.506" y1="13.1183" x2="110.506" y2="29.3835" gradientUnits="userSpaceOnUse">
<stop stop-color="#66D9E8"/>
<stop offset="0.375" stop-color="#748FFC"/>
<stop offset="0.729167" stop-color="#CC5DE8"/>
</linearGradient>
<linearGradient id="paint2_linear_612_316" x1="110.506" y1="13.1183" x2="110.506" y2="29.3835" gradientUnits="userSpaceOnUse">
<stop stop-color="#66D9E8"/>
<stop offset="0.375" stop-color="#748FFC"/>
<stop offset="0.729167" stop-color="#CC5DE8"/>
</linearGradient>
<linearGradient id="paint3_linear_612_316" x1="110.506" y1="13.1183" x2="110.506" y2="29.3835" gradientUnits="userSpaceOnUse">
<stop stop-color="#66D9E8"/>
<stop offset="0.375" stop-color="#748FFC"/>
<stop offset="0.729167" stop-color="#CC5DE8"/>
</linearGradient>
<linearGradient id="paint4_linear_612_316" x1="110.506" y1="13.1183" x2="110.506" y2="29.3835" gradientUnits="userSpaceOnUse">
<stop stop-color="#66D9E8"/>
<stop offset="0.375" stop-color="#748FFC"/>
<stop offset="0.729167" stop-color="#CC5DE8"/>
</linearGradient>
<linearGradient id="paint5_linear_612_316" x1="110.506" y1="13.1183" x2="110.506" y2="29.3835" gradientUnits="userSpaceOnUse">
<stop stop-color="#66D9E8"/>
<stop offset="0.375" stop-color="#748FFC"/>
<stop offset="0.729167" stop-color="#CC5DE8"/>
</linearGradient>
<linearGradient id="paint6_linear_612_316" x1="110.506" y1="13.1183" x2="110.506" y2="29.3835" gradientUnits="userSpaceOnUse">
<stop stop-color="#66D9E8"/>
<stop offset="0.375" stop-color="#748FFC"/>
<stop offset="0.729167" stop-color="#CC5DE8"/>
</linearGradient>
<linearGradient id="paint7_linear_612_316" x1="110.506" y1="13.1183" x2="110.506" y2="29.3835" gradientUnits="userSpaceOnUse">
<stop stop-color="#66D9E8"/>
<stop offset="0.375" stop-color="#748FFC"/>
<stop offset="0.729167" stop-color="#CC5DE8"/>
</linearGradient>
<linearGradient id="paint8_linear_612_316" x1="110.506" y1="13.1183" x2="110.506" y2="29.3835" gradientUnits="userSpaceOnUse">
<stop stop-color="#66D9E8"/>
<stop offset="0.375" stop-color="#748FFC"/>
<stop offset="0.729167" stop-color="#CC5DE8"/>
</linearGradient>
</defs>
</svg>
