<svg width="139" height="38" viewBox="0 0 139 38" fill="none" xmlns="http://www.w3.org/2000/svg">
<path d="M15.4173 23V9.368H10.0413V6.2H24.6813V9.368H19.3053V23H15.4173ZM26.5589 23V9.2H30.3509V14.48H35.9669V9.2H39.7589V23H35.9669V17.528H30.3509V23H26.5589ZM46.8174 14.624H53.4894V17.384H46.8174V14.624ZM47.2014 20.096H54.5694V23H43.4574V9.2H54.3054V12.104H47.2014V20.096ZM57.3324 23V9.2H60.5004L66.2124 18.488H64.6764L70.2684 9.2H73.4604L73.5084 23H69.9564L69.9324 14.6H70.4604L66.2364 21.536H64.5324L60.1644 14.6H60.8604V23H57.3324ZM77.1839 23V9.2H80.9759V23H77.1839ZM95.4611 18.8C95.4611 19.664 95.2131 20.432 94.7171 21.104C94.2371 21.776 93.5331 22.304 92.6051 22.688C91.6931 23.072 90.5651 23.264 89.2211 23.264C88.1171 23.264 87.0291 23.128 85.9571 22.856C84.9011 22.584 84.0451 22.224 83.3891 21.776L84.7091 18.968C85.3331 19.384 86.0611 19.712 86.8931 19.952C87.7251 20.192 88.5731 20.312 89.4371 20.312C90.2851 20.312 90.8771 20.192 91.2131 19.952C91.5491 19.712 91.7171 19.432 91.7171 19.112C91.7171 18.792 91.5651 18.536 91.2611 18.344C90.9731 18.152 90.5891 18 90.1091 17.888C89.6451 17.76 89.1251 17.64 88.5491 17.528C87.9891 17.416 87.4211 17.272 86.8451 17.096C86.2851 16.92 85.7651 16.688 85.2851 16.4C84.8211 16.096 84.4371 15.704 84.1331 15.224C83.8451 14.728 83.7011 14.112 83.7011 13.376C83.7011 12.512 83.9491 11.752 84.4451 11.096C84.9571 10.424 85.6771 9.896 86.6051 9.512C87.5331 9.128 88.6371 8.936 89.9171 8.936C90.7811 8.936 91.6611 9.032 92.5571 9.224C93.4531 9.416 94.2371 9.72 94.9091 10.136L93.6851 12.944C93.0611 12.56 92.4131 12.288 91.7411 12.128C91.0851 11.968 90.4291 11.888 89.7731 11.888C88.9731 11.888 88.3891 12.008 88.0211 12.248C87.6531 12.488 87.4691 12.792 87.4691 13.16C87.4691 13.48 87.6131 13.736 87.9011 13.928C88.1891 14.12 88.5651 14.28 89.0291 14.408C89.5091 14.52 90.0371 14.632 90.6131 14.744C91.1891 14.856 91.7571 15 92.3171 15.176C92.8771 15.336 93.3971 15.56 93.8771 15.848C94.3571 16.136 94.7411 16.52 95.0291 17C95.3171 17.464 95.4611 18.064 95.4611 18.8ZM102.589 23L110.077 6.2H113.917L121.429 23H117.349L111.205 8.168H112.741L106.573 23H102.589ZM106.333 19.4L107.365 16.448H116.005L117.061 19.4H106.333ZM123.172 23V6.2H127.06V23H123.172Z" fill="url(#paint0_linear_332_1214)"/>
<defs>
<linearGradient id="paint0_linear_332_1214" x1="32.8516" y1="18" x2="125.61" y2="18" gradientUnits="userSpaceOnUse">
<stop stop-color="#AD59D6"/>
<stop offset="1" stop-color="#296CFB"/>
</linearGradient>
</defs>
</svg>
